<svg width="20" height="24" fill="none" xmlns="http://www.w3.org/2000/svg"><path d="M19.34 11.386a1.578 1.578 0 0 0-1.159-.477h-.545V7.636c0-2.09-.75-3.886-2.25-5.386S12.091 0 10 0 6.113.75 4.613 2.25c-1.5 1.5-2.25 3.295-2.25 5.386v3.273h-.545c-.454 0-.84.16-1.159.477a1.577 1.577 0 0 0-.477 1.16v9.818c0 .454.16.84.477 1.159A1.58 1.58 0 0 0 1.82 24h16.363c.454 0 .84-.159 1.159-.477a1.58 1.58 0 0 0 .477-1.16v-9.818c0-.454-.16-.84-.478-1.159Zm-4.977-.477H5.636V7.636c0-1.204.427-2.233 1.279-3.085C7.767 3.7 8.795 3.273 10 3.273s2.233.426 3.085 1.278c.852.852 1.278 1.88 1.278 3.085v3.273Z" fill="#454545"/></svg>