<svg width="24" height="24" fill="none" xmlns="http://www.w3.org/2000/svg"><path d="M23.15.487a.715.715 0 0 0-.913-.446.728.728 0 0 0-.441.923c1.103 3.205-1.087 5.596-2.757 6.878l-.676-.977c-.226-.327-.734-.599-1.128-.605l-3.786.017c-.394-.006-.98.177-1.303.406L.99 14.589a1.219 1.219 0 0 0-.294 1.684l5.07 7.329c.379.547.987.481 1.527.099l11.156-7.906c.323-.23.693-.725.823-1.102l1.185-3.775c.13-.377.05-.953-.176-1.28l-.412-.595c2.244-1.735 4.573-4.803 3.28-8.556Zm-5.191 11.227c-.865.612-2.056.4-2.662-.475a1.95 1.95 0 0 1 .47-2.695 1.891 1.891 0 0 1 2.219.021c-.323.197-.545.31-.587.33a.73.73 0 0 0-.342.965.717.717 0 0 0 .954.348c.23-.11.477-.243.736-.397a1.944 1.944 0 0 1-.788 1.903Z" fill="#454545"/></svg>