<svg width="20" height="20" fill="none" xmlns="http://www.w3.org/2000/svg"><path d="M10 .4A9.6 9.6 0 0 0 .4 10a9.54 9.54 0 0 0 1.369 4.92L.486 19.6l4.78-1.255A9.548 9.548 0 0 0 10 19.6c5.302 0 9.6-4.298 9.6-9.6S15.302.4 10 .4ZM6.714 5.522c.156 0 .316-.001.455.006.17.004.357.017.536.411.212.469.673 1.645.732 1.764.06.12.102.26.02.416-.08.16-.12.257-.235.398-.12.138-.25.309-.358.413-.12.119-.242.25-.105.487.138.238.616 1.017 1.322 1.646.908.81 1.674 1.06 1.913 1.18.238.118.376.1.514-.06.141-.156.595-.691.755-.93.155-.238.315-.197.53-.119.22.079 1.389.655 1.627.774.239.119.395.178.455.275.062.1.062.576-.136 1.131-.198.554-1.168 1.09-1.603 1.128-.44.041-.85.198-2.855-.592-2.419-.953-3.945-3.43-4.064-3.59-.119-.157-.969-1.289-.969-2.457 0-1.172.615-1.746.83-1.984a.874.874 0 0 1 .636-.297Z" fill="#454545"/></svg>