<svg width="20" height="24" viewBox="0 0 20 24" fill="none" xmlns="http://www.w3.org/2000/svg">
<path d="M19.3404 11.3864C19.0221 11.0682 18.6359 10.9092 18.1811 10.9092H17.636V7.63628C17.636 5.5454 16.8862 3.75011 15.3861 2.2501C13.8862 0.750034 12.0911 0 9.9999 0C7.90879 0 6.11332 0.750034 4.61349 2.25004C3.11342 3.75011 2.36363 5.54534 2.36363 7.63628V10.9092H1.81825C1.36386 10.9092 0.977412 11.0682 0.659202 11.3864C0.340991 11.7044 0.181946 12.0908 0.181946 12.5456V22.3637C0.181946 22.8181 0.341051 23.2047 0.659202 23.5229C0.977412 23.8408 1.36386 24 1.81825 24H18.1816C18.6363 24 19.0225 23.841 19.3408 23.5229C19.6587 23.2047 19.818 22.8181 19.818 22.3637V12.5454C19.8183 12.091 19.6587 11.7046 19.3404 11.3864ZM14.3634 10.9092H5.63636V7.63628C5.63636 6.43179 6.06257 5.40331 6.91481 4.55119C7.76718 3.69894 8.79548 3.27291 10.0001 3.27291C11.2048 3.27291 12.2329 3.69888 13.0853 4.55119C13.9373 5.40325 14.3634 6.43179 14.3634 7.63628V10.9092Z" fill="#454545"/>
</svg>
