<svg width="24" height="24" viewBox="0 0 24 24" fill="none" xmlns="http://www.w3.org/2000/svg">
<path d="M23.1495 0.486761C23.0189 0.108281 22.61 -0.0911588 22.2365 0.0406012C21.8629 0.172361 21.6656 0.585881 21.7957 0.964361C22.8994 4.1686 20.7085 6.56044 19.0393 7.84204L18.3632 6.86476C18.1371 6.53812 17.6293 6.26596 17.2354 6.25996L13.4489 6.27724C13.0553 6.271 12.4685 6.45364 12.1457 6.6826L0.989579 14.5887C0.449339 14.9717 0.317819 15.7253 0.696059 16.2725L5.76654 23.6016C6.14502 24.1488 6.75318 24.0833 7.29342 23.7005L18.4493 15.7947C18.7721 15.5655 19.1417 15.0699 19.2716 14.6931L20.4572 10.9176C20.5863 10.5406 20.5076 9.96508 20.2813 9.6382L19.8692 9.04276C22.1134 7.30828 24.4419 4.23964 23.1495 0.486761ZM17.959 11.714C17.0943 12.3264 15.9025 12.1136 15.2972 11.2388C14.6917 10.3632 14.9017 9.15748 15.7669 8.54428C16.453 8.0578 17.3444 8.09332 17.9859 8.5654C17.6629 8.7622 17.4413 8.87548 17.3991 8.89564C17.0415 9.06652 16.8886 9.49852 17.0569 9.86044C17.1793 10.1232 17.437 10.2771 17.7061 10.2771C17.8083 10.2771 17.9122 10.2545 18.0111 10.2075C18.241 10.0978 18.4885 9.96532 18.7465 9.811C18.8629 10.5228 18.5823 11.2724 17.959 11.714Z" fill="#454545"/>
</svg>
