<svg width="20" height="20" viewBox="0 0 20 20" fill="none" xmlns="http://www.w3.org/2000/svg">
<path d="M9.99999 0.400002C4.69839 0.400002 0.399994 4.6984 0.399994 10C0.399994 11.801 0.905867 13.4801 1.76874 14.9203L0.485931 19.6L5.26562 18.3453C6.66348 19.1401 8.27719 19.6 9.99999 19.6C15.3016 19.6 19.6 15.3016 19.6 10C19.6 4.6984 15.3016 0.400002 9.99999 0.400002ZM6.71406 5.52188C6.87006 5.52188 7.03034 5.52093 7.16874 5.52813C7.33994 5.53213 7.52628 5.54466 7.70468 5.93906C7.91668 6.40786 8.37829 7.58393 8.43749 7.70313C8.49669 7.82233 8.53864 7.96275 8.45624 8.11875C8.37784 8.27875 8.33707 8.37559 8.22187 8.51719C8.10267 8.65479 7.97206 8.82569 7.86406 8.92969C7.74486 9.04889 7.62177 9.17959 7.75937 9.41719C7.89697 9.65479 8.37484 10.4337 9.08124 11.0625C9.98924 11.8737 10.7553 12.123 10.9937 12.2422C11.2321 12.3614 11.3702 12.3428 11.5078 12.1828C11.6494 12.0268 12.1025 11.4915 12.2625 11.2531C12.4185 11.0147 12.5777 11.056 12.7937 11.1344C13.0129 11.2128 14.1819 11.7886 14.4203 11.9078C14.6587 12.027 14.815 12.086 14.875 12.1828C14.9366 12.2828 14.9367 12.7589 14.7391 13.3141C14.5415 13.8685 13.5711 14.4046 13.1359 14.4422C12.6967 14.483 12.2868 14.6396 10.2812 13.85C7.86204 12.8972 6.33638 10.4194 6.21718 10.2594C6.09798 10.1034 5.24843 8.97113 5.24843 7.80313C5.24843 6.63113 5.86292 6.05715 6.07812 5.81875C6.29732 5.58035 6.55406 5.52188 6.71406 5.52188Z" fill="#454545"/>
</svg>
